<svg width="32" height="32" viewBox="0 0 32 32" fill="none" xmlns="http://www.w3.org/2000/svg">
<g clip-path="url(#clip0_2695_47131)">
<path fill-rule="evenodd" clip-rule="evenodd" d="M29.9297 14.9432C29.8442 15.2993 29.6867 15.6342 29.4669 15.927L27.7799 18.1845C27.7253 18.2577 27.6886 18.3427 27.6728 18.4327C27.657 18.5227 27.6625 18.6151 27.6889 18.7025L28.5079 21.4115C28.6134 21.7633 28.6457 22.1329 28.603 22.4977C28.5603 22.8624 28.4433 23.2146 28.2594 23.5325C28.0791 23.8462 27.8363 24.1195 27.5461 24.3356C27.256 24.5517 26.9245 24.706 26.5724 24.789L23.8494 25.426C23.7641 25.4472 23.6849 25.4881 23.6181 25.5451C23.5513 25.6022 23.4987 25.6741 23.4644 25.755L22.3724 28.3625C22.2312 28.701 22.0214 29.0067 21.7564 29.2603C21.4914 29.5138 21.1768 29.7099 20.8324 29.836C20.5441 29.9405 20.2396 29.9938 19.9329 29.9935C19.5132 29.9929 19.0995 29.8934 18.7254 29.703L16.2334 28.415C16.1579 28.3771 16.0746 28.3574 15.9901 28.3574C15.9057 28.3574 15.8224 28.3771 15.7469 28.415L13.2584 29.703C12.9334 29.8702 12.5772 29.968 12.2124 29.9905C11.8476 30.013 11.4822 29.9595 11.1391 29.8335C10.796 29.7076 10.4828 29.5118 10.2192 29.2586C9.95568 29.0054 9.74751 28.7002 9.60789 28.3625L8.51589 25.755C8.48173 25.6746 8.42955 25.6032 8.36341 25.5461C8.29727 25.4891 8.21894 25.448 8.13441 25.426L5.4114 24.789C5.05777 24.7028 4.72575 24.5445 4.43608 24.3241C4.14641 24.1037 3.90529 23.8258 3.72788 23.508C3.54452 23.1899 3.42821 22.8376 3.38608 22.4728C3.34395 22.1081 3.37689 21.7386 3.48289 21.387L4.29838 18.678C4.32551 18.5909 4.33174 18.4986 4.31654 18.4086C4.30133 18.3186 4.26512 18.2334 4.21088 18.16L2.5274 15.899C2.31026 15.6046 2.15516 15.2691 2.07153 14.9129C1.9879 14.5567 1.97749 14.1873 2.04089 13.827C2.106 13.4723 2.24217 13.1343 2.44127 12.8336C2.64036 12.5328 2.89827 12.2755 3.19942 12.077L5.5444 10.5335C5.61899 10.4834 5.68069 10.4164 5.72448 10.338C5.76827 10.2595 5.79291 10.1718 5.79639 10.082L5.9434 7.25402C5.96101 6.88939 6.0535 6.53226 6.21509 6.20491C6.37667 5.87757 6.60388 5.58701 6.88262 5.35128C7.16136 5.11555 7.48566 4.93973 7.83529 4.83474C8.18492 4.72974 8.55241 4.69782 8.9149 4.741L11.6869 5.091C11.7721 5.1024 11.8587 5.09274 11.9393 5.06284C12.0198 5.03294 12.0918 4.98371 12.1489 4.9195L14.0564 2.84753C14.3033 2.57827 14.6035 2.36326 14.9379 2.21619C15.2723 2.06911 15.6336 1.99316 15.9989 1.99316C16.3642 1.99316 16.7255 2.06911 17.0599 2.21619C17.3943 2.36326 17.6945 2.57827 17.9414 2.84753L19.8454 4.9195C19.9034 4.98351 19.976 5.03255 20.0571 5.06241C20.1381 5.09228 20.2252 5.10208 20.3109 5.091L23.0829 4.741C23.442 4.69746 23.8062 4.72811 24.153 4.83106C24.4998 4.93401 24.8217 5.10709 25.0989 5.33953C25.3801 5.57654 25.6097 5.86873 25.7734 6.19803C25.9372 6.52734 26.0316 6.88675 26.0509 7.25402L26.1979 10.082C26.2021 10.172 26.2273 10.2598 26.2717 10.3383C26.3161 10.4167 26.3783 10.4836 26.4534 10.5335L28.7949 12.077C29.101 12.2781 29.3625 12.5397 29.5636 12.8458C29.7646 13.1519 29.9008 13.4959 29.9638 13.8566C30.0267 14.2174 30.0151 14.5872 29.9297 14.9432Z" fill="#45A081"/>
<path d="M17.8741 18.5158C17.679 18.7059 17.524 18.9332 17.4182 19.1841C17.3123 19.4351 17.2578 19.7047 17.2578 19.9771C17.2578 20.2495 17.3123 20.5191 17.4182 20.77C17.524 21.021 17.679 21.2483 17.8741 21.4384C18.277 21.8218 18.8124 22.0349 19.3686 22.0334C19.9216 22.0366 20.4536 21.8215 20.8491 21.4349C21.0453 21.2458 21.2015 21.0191 21.3081 20.7683C21.4147 20.5175 21.4697 20.2479 21.4697 19.9753C21.4697 19.7028 21.4147 19.4332 21.3081 19.1824C21.2015 18.9316 21.0453 18.7049 20.8491 18.5158C20.4519 18.1264 19.9178 17.9082 19.3616 17.9082C18.8053 17.9082 18.2712 18.1264 17.8741 18.5158Z" fill="white"/>
<path d="M14.097 13.4803C14.2946 13.29 14.4517 13.0616 14.5587 12.809C14.6658 12.5564 14.7206 12.2847 14.7199 12.0103C14.7182 11.7418 14.6625 11.4764 14.5561 11.2298C14.4496 10.9833 14.2947 10.7607 14.1004 10.5753C13.7068 10.1831 13.1738 9.96289 12.6182 9.96289C12.0625 9.96289 11.5296 10.1831 11.1359 10.5753C10.9433 10.7616 10.7899 10.9845 10.6847 11.2309C10.5795 11.4774 10.5247 11.7423 10.5234 12.0103C10.5227 12.2843 10.5765 12.5556 10.6816 12.8086C10.7868 13.0616 10.9412 13.2911 11.1359 13.4838C11.5365 13.8661 12.0697 14.0782 12.6234 14.0753C13.1736 14.0776 13.7027 13.864 14.097 13.4803Z" fill="white"/>
<path d="M20.2298 11.0684C20.1905 10.9013 20.1179 10.7439 20.0162 10.6055C19.9146 10.4672 19.786 10.3508 19.6383 10.2634C19.492 10.1692 19.3285 10.1048 19.1572 10.0738C18.986 10.0429 18.8103 10.046 18.6403 10.0831C18.4702 10.1201 18.3092 10.1904 18.1663 10.2898C18.0235 10.3892 17.9016 10.5159 17.8078 10.6624L11.6898 19.9864C11.5953 20.1285 11.5304 20.2883 11.4991 20.4561C11.4678 20.6239 11.4708 20.7963 11.5078 20.9629C11.5439 21.134 11.6144 21.2961 11.7148 21.4392C11.8153 21.5824 11.9437 21.7037 12.0923 21.7959C12.3131 21.9292 12.5659 22.0006 12.8238 22.0024C13.0444 22.0022 13.2616 21.9478 13.4562 21.8441C13.6509 21.7404 13.8171 21.5904 13.9403 21.4074L20.0583 12.0519C20.1509 11.9076 20.2138 11.7463 20.2432 11.5775C20.2726 11.4086 20.2681 11.2355 20.2298 11.0684Z" fill="white"/>
</g>
<defs>
<clipPath id="clip0_2695_47131">
<rect width="28" height="28" fill="white" transform="translate(2 2)"/>
</clipPath>
</defs>
</svg>
