<svg xmlns:xlink="http://www.w3.org/1999/xlink" width="24" height="24" viewBox="0 0 24 24" fill="none" xmlns="http://www.w3.org/2000/svg"><path d="M10.6737 5.09702C10.968 3.63433 13.032 3.63433 13.3263 5.09702C13.5281 6.09956 14.7041 6.53299 15.495 5.89632C16.6489 4.96744 18.23 6.31092 17.527 7.62301C17.0452 8.52232 17.6709 9.61981 18.6809 9.64692C20.1545 9.68647 20.5129 11.7448 19.1416 12.2924C18.2016 12.6676 17.9843 13.9157 18.7408 14.5939C19.8446 15.5833 18.8126 17.3934 17.4145 16.9202C16.4562 16.5959 15.4976 17.4105 15.6466 18.4224C15.864 19.8988 13.9245 20.6137 13.1539 19.3412C12.6257 18.469 11.3743 18.469 10.8461 19.3412C10.0755 20.6137 8.13597 19.8988 8.35339 18.4224C8.50241 17.4105 7.54375 16.5959 6.5855 16.9202C5.18743 17.3934 4.15544 15.5833 5.25917 14.5939C6.01567 13.9157 5.79835 12.6676 4.85842 12.2924C3.48706 11.7448 3.84547 9.68647 5.31905 9.64692C6.32905 9.61981 6.95478 8.52232 6.47296 7.62301C5.76999 6.31092 7.35109 4.96744 8.50503 5.89632C9.29594 6.53299 10.4719 6.09955 10.6737 5.09702Z" stroke="#30363C" stroke-width="1.4px" fill="none"></path><path d="M9.80078 9.69922V9.69922" stroke="#30363C" stroke-width="2px" stroke-linecap="round" fill="none"></path><path d="M14.4014 14.3008V14.3008" stroke="#30363C" stroke-width="2px" stroke-linecap="round" fill="none"></path><path d="M9.30581 13.8042C9.03244 14.0776 9.03244 14.5208 9.30581 14.7942C9.57917 15.0676 10.0224 15.0676 10.2958 14.7942L9.30581 13.8042ZM14.8958 10.1942C15.1691 9.92083 15.1691 9.47761 14.8958 9.20424C14.6224 8.93088 14.1792 8.93088 13.9058 9.20424L14.8958 10.1942ZM10.2958 14.7942L14.8958 10.1942L13.9058 9.20424L9.30581 13.8042L10.2958 14.7942Z" fill="#30363C"></path></svg>