<svg width="24" height="24" viewBox="0 0 24 24" fill="none" xmlns="http://www.w3.org/2000/svg">
<path fill-rule="evenodd" clip-rule="evenodd" d="M9.94231 4.95619C10.0915 4.80704 10.2938 4.72324 10.5047 4.72324H13.4953C13.7063 4.72324 13.9086 4.80704 14.0577 4.95619C14.2069 5.10534 14.2907 5.30764 14.2907 5.51857V6.3139H9.70936V5.51857C9.70936 5.30764 9.79316 5.10534 9.94231 4.95619ZM8.30936 6.3139V5.51857C8.30936 4.93633 8.54066 4.37794 8.95236 3.96624C9.36406 3.55453 9.92245 3.32324 10.5047 3.32324H13.4953C14.0776 3.32324 14.636 3.55453 15.0477 3.96624C15.4594 4.37794 15.6907 4.93633 15.6907 5.51857V6.3139H17.2337H18.729C19.1156 6.3139 19.429 6.6273 19.429 7.0139C19.429 7.4005 19.1156 7.7139 18.729 7.7139H17.9337V17.4812C17.9337 18.0634 17.7024 18.6218 17.2907 19.0335C16.879 19.4452 16.3206 19.6765 15.7383 19.6765H8.2617C7.67946 19.6765 7.12107 19.4452 6.70937 19.0335C6.29766 18.6218 6.06637 18.0634 6.06637 17.4812V7.7139H5.27104C4.88445 7.7139 4.57104 7.4005 4.57104 7.0139C4.57104 6.6273 4.88445 6.3139 5.27104 6.3139H6.76637H8.30936ZM7.46637 7.7139V17.4812C7.46637 17.6921 7.55016 17.8944 7.69932 18.0436C7.84847 18.1927 8.05077 18.2765 8.2617 18.2765H15.7383C15.9493 18.2765 16.1516 18.1927 16.3007 18.0436C16.4499 17.8944 16.5337 17.6921 16.5337 17.4812V7.7139H14.9907H9.00936H7.46637ZM10.5047 10.0522C10.8913 10.0522 11.2047 10.3656 11.2047 10.7522V15.2382C11.2047 15.6248 10.8913 15.9382 10.5047 15.9382C10.1181 15.9382 9.80469 15.6248 9.80469 15.2382V10.7522C9.80469 10.3656 10.1181 10.0522 10.5047 10.0522ZM14.1953 10.7522C14.1953 10.3656 13.8819 10.0522 13.4953 10.0522C13.1087 10.0522 12.7953 10.3656 12.7953 10.7522V15.2382C12.7953 15.6248 13.1087 15.9382 13.4953 15.9382C13.8819 15.9382 14.1953 15.6248 14.1953 15.2382V10.7522Z" fill="#6E787E"/>
</svg>
