<svg xmlns:xlink="http://www.w3.org/1999/xlink" xmlns="http://www.w3.org/2000/svg" viewBox="0 0 24 24" class="c-cZuCZG c-cZuCZG-gtZKQU-size-large c-cZuCZG-dmsdwv-rotate-up c-cZuCZG-ieMTBas-css" width="24"  height="24" ><path d="M12 10.04C13.6679 10.04 15.02 8.68789 15.02 7.01999C15.02 5.35209 13.6679 3.99999 12 3.99999C10.3321 3.99999 8.98003 5.35209 8.98003 7.01999C8.98003 8.68789 10.3321 10.04 12 10.04Z" stroke="#30363C" stroke-width="1.4px" stroke-linecap="round" stroke-linejoin="round" fill="none"></path><path d="M6.12002 20H17.88C18.1558 20.0026 18.4294 19.9509 18.6852 19.8478C18.941 19.7447 19.174 19.5922 19.3708 19.3991C19.5677 19.2059 19.7246 18.9759 19.8325 18.7221C19.9405 18.4683 19.9974 18.1958 20 17.92V16.57C20 15.76 19 15 17.67 14.37C15.8894 13.4975 13.9329 13.044 11.95 13.044C9.96718 13.044 8.01061 13.4975 6.23002 14.37C4.97002 15 4.00002 15.74 4.00002 16.54V17.89C3.99869 18.1683 4.05268 18.4441 4.15887 18.7013C4.26506 18.9586 4.42133 19.1922 4.61859 19.3885C4.81584 19.5848 5.05016 19.74 5.30792 19.845C5.56567 19.95 5.84172 20.0026 6.12002 20Z" stroke="#30363C" stroke-width="1.4px" stroke-linecap="round" stroke-linejoin="round" fill="none"></path></svg>