<svg xmlns:xlink="http://www.w3.org/1999/xlink" xmlns="http://www.w3.org/2000/svg" viewBox="0 0 24 24" class="c-cZuCZG c-cZuCZG-gtZKQU-size-large c-cZuCZG-dmsdwv-rotate-up c-cZuCZG-ijkIlMj-css" width="24"  height="24" ><path d="M1.11328 14.3438C1.11328 12.6875 1.68359 10.9297 2.82422 9.07031C3.98047 7.19531 6.05859 5.48438 9.05859 3.9375L9.62109 4.99219C8.12109 6.05469 7.01172 6.94531 6.29297 7.66406C5.02734 8.96094 4.39453 10.2031 4.39453 11.3906C4.39453 11.7969 4.51172 12.0625 4.74609 12.1875C4.98047 12.3281 5.18359 12.3984 5.35547 12.3984C5.94922 12.3203 6.33984 12.2812 6.52734 12.2812C7.52734 12.2812 8.34766 12.6484 8.98828 13.3828C9.62891 14.1016 9.94922 14.9766 9.94922 16.0078C9.94922 17.1641 9.59766 18.1328 8.89453 18.9141C8.19141 19.6797 7.22266 20.0625 5.98828 20.0625C4.53516 20.0625 3.35547 19.5469 2.44922 18.5156C1.55859 17.4688 1.11328 16.0781 1.11328 14.3438ZM14.0508 14.3438C14.0508 12.5938 14.6602 10.7891 15.8789 8.92969C17.0977 7.07031 19.1367 5.40625 21.9961 3.9375L22.5586 4.99219C21.1523 5.97656 20.0742 6.84375 19.3242 7.59375C17.9961 8.92188 17.332 10.1562 17.332 11.2969C17.332 11.625 17.418 11.8906 17.5898 12.0938C17.7617 12.2969 17.9961 12.3984 18.293 12.3984C18.8867 12.3203 19.2773 12.2812 19.4648 12.2812C20.4492 12.2812 21.2617 12.6406 21.9023 13.3594C22.5586 14.0781 22.8867 14.9609 22.8867 16.0078C22.8867 17.2266 22.5273 18.2109 21.8086 18.9609C21.0898 19.6953 20.1133 20.0625 18.8789 20.0625C17.4727 20.0625 16.3164 19.5469 15.4102 18.5156C14.5039 17.4688 14.0508 16.0781 14.0508 14.3438Z" fill="#BFEDDD"></path></svg>