<svg xmlns:xlink="http://www.w3.org/1999/xlink" xmlns="http://www.w3.org/2000/svg" viewBox="0 0 24 24" class="c-cZuCZG c-cZuCZG-gtZKQU-size-large c-cZuCZG-dmsdwv-rotate-up c-cZuCZG-ijxVIrb-css" width="24"  height="24" ><path d="M8.15 7.27C7.7634 7.27 7.45 7.5834 7.45 7.97C7.45 8.3566 7.7634 8.67 8.15 8.67V7.27ZM15.85 8.67C16.2366 8.67 16.55 8.3566 16.55 7.97C16.55 7.5834 16.2366 7.27 15.85 7.27V8.67ZM8.15 11.3C7.7634 11.3 7.45 11.6134 7.45 12C7.45 12.3866 7.7634 12.7 8.15 12.7V11.3ZM15.85 12.7C16.2366 12.7 16.55 12.3866 16.55 12C16.55 11.6134 16.2366 11.3 15.85 11.3V12.7ZM8.15 15.33C7.7634 15.33 7.45 15.6434 7.45 16.03C7.45 16.4166 7.7634 16.73 8.15 16.73V15.33ZM12.01 16.73C12.3966 16.73 12.71 16.4166 12.71 16.03C12.71 15.6434 12.3966 15.33 12.01 15.33V16.73ZM8.15 8.67H15.85V7.27H8.15V8.67ZM8.15 12.7H15.85V11.3H8.15V12.7ZM8.15 16.73H12.01V15.33H8.15V16.73ZM5.78 4.7H18.22V3.3H5.78V4.7ZM18.22 4.7C18.8165 4.7 19.3 5.18353 19.3 5.78H20.7C20.7 4.41033 19.5897 3.3 18.22 3.3V4.7ZM19.3 5.78V18.22H20.7V5.78H19.3ZM19.3 18.22C19.3 18.8165 18.8165 19.3 18.22 19.3V20.7C19.5897 20.7 20.7 19.5897 20.7 18.22H19.3ZM18.22 19.3H5.78V20.7H18.22V19.3ZM5.78 19.3C5.18353 19.3 4.7 18.8165 4.7 18.22H3.3C3.3 19.5897 4.41033 20.7 5.78 20.7V19.3ZM4.7 18.22V5.78H3.3V18.22H4.7ZM4.7 5.78C4.7 5.18353 5.18353 4.7 5.78 4.7V3.3C4.41033 3.3 3.3 4.41033 3.3 5.78H4.7Z" fill="#30363C"></path></svg>